<svg width="1440" height="144" viewBox="0 0 1440 144" fill="none" xmlns="http://www.w3.org/2000/svg">
<path fill-rule="evenodd" clip-rule="evenodd" d="M0 0L68.7568 5.4104C138.811 10.8208 276.324 21.6416 415.135 39.9538C553.946 58.6821 691.459 85.3179 830.27 90.7283C969.081 96.1387 1106.59 79.9075 1245.41 74.9133C1384.22 69.5029 1521.73 74.9133 1591.78 77.4104L1660.54 79.9075V144H1591.78C1521.73 144 1384.22 144 1245.41 144C1106.59 144 969.081 144 830.27 144C691.459 144 553.946 144 415.135 144C276.324 144 138.811 144 68.7568 144H0V0Z" fill="#F07640"/>
<path fill-rule="evenodd" clip-rule="evenodd" d="M0 57.6L55.3514 69.12C110.703 80.64 221.405 103.68 332.108 97.92C442.811 92.16 553.514 57.6 664.216 34.56C774.919 11.52 885.622 0 996.324 0C1107.03 0 1217.73 11.52 1328.43 31.68C1439.14 51.84 1549.84 80.64 1605.19 95.04L1660.54 109.44V144H1605.19C1549.84 144 1439.14 144 1328.43 144C1217.73 144 1107.03 144 996.324 144C885.622 144 774.919 144 664.216 144C553.514 144 442.811 144 332.108 144C221.405 144 110.703 144 55.3514 144H0V57.6Z" fill="#A43732" fill-opacity="0.57"/>
</svg>
