<svg width="1440" height="127" fill="none" xmlns="http://www.w3.org/2000/svg">
<path fill-rule="evenodd" clip-rule="evenodd" d="M-60 0L8.75675 5.4104C78.8108 10.8208 216.324 21.6416 355.135 39.9538C493.946 58.6821 631.459 85.3179 770.27 90.7283C909.081 96.1387 1046.59 79.9075 1185.41 74.9133C1324.22 69.5029 1461.73 74.9133 1531.78 77.4104L1600.54 79.9075V144H1531.78C1461.73 144 1324.22 144 1185.41 144C1046.59 144 909.081 144 770.27 144C631.459 144 493.946 144 355.135 144C216.324 144 78.8108 144 8.75675 144H-60V0Z" fill="#A43732"/>
<path fill-rule="evenodd" clip-rule="evenodd" d="M-60 57.6L-4.64865 69.12C50.7027 80.64 161.405 103.68 272.108 97.92C382.811 92.16 493.514 57.6 604.216 34.56C714.919 11.52 825.622 0 936.324 0C1047.03 0 1157.73 11.52 1268.43 31.68C1379.14 51.84 1489.84 80.64 1545.19 95.04L1600.54 109.44V144H1545.19C1489.84 144 1379.14 144 1268.43 144C1157.73 144 1047.03 144 936.324 144C825.622 144 714.919 144 604.216 144C493.514 144 382.811 144 272.108 144C161.405 144 50.7027 144 -4.64865 144H-60V57.6Z" fill="#EB7B42"/>
</svg>
